BBC Bang Goes the Theory S05E04 Episode 4 HD 720p x264 aac mp4 [aularon]


- - -
Synopsis
- - -
The team puts more science to the test. Liz Bonnin investigates new stem-cell research that could change the face of organ transplant surgery, Dr Yan Wong tries out the Nocebo effect (placebo's evil twin), and at a memory boot camp Dallas Campbell discovers how to remember where he left his keys.

The programme is co-produced with the Open University. For more ways to put science to the test, go to http://www.bbc.co.uk/bang and follow the links to The Open University.


- - -
URL
- - -   
http://www.bbc.co.uk/programmes/b0146cfm


- - -
Technical Details
- - -
General
Complete name                    : BBC.Bang.Goes.the.Theory.S05E04/Bang_Goes_the_Theory_Series_5_-_Episode_4_b0146cfm_default.mp4
Format                           : MPEG-4
Format profile                   : Base Media
Codec ID                         : isom
File size                        : 538 MiB
Duration                         : 28mn 56s
Overall bit rate                 : 2 601 Kbps
Movie name                       : Bang Goes the Theory: Series 5: Episode 4
Album                            : Bang Goes the Theory: Series 5
Track name/Position              : 4
Track name/Total                 : 0
Performer                        : Bang Goes the Theory: Series 5
Genre                            : Factual,Science & Nature
Recorded date                    : 2011-09-05T19:30:00+01:00
Tagged date                      : UTC 2011-09-05 21:25:12
Writing application              : Lavf53.10.0
Cover                            : Yes
Comment                          : Recorded using get_iplayer, by Aularon.
rtng                             : 2
stik                             : 1
desc                             : The team puts more science to the test, including new stem-cell research and the Nocebo effect (placebo's evil twin). And Dallas Campbell goes to a memory boot camp.
tvnn                             : BBC One
tvsh                             : Bang Goes the Theory: Series 5
tven                             : b0146cfm
catg                             : Factual,Science & Nature
tvsn                             : 5
tves                             : 4

Video
ID                               : 1
Format                           : AVC
Format/Info                      : Advanced Video Codec
Format profile                   : High@L4.1
Format settings, CABAC           : Yes
Format settings, ReFrames        : 6 frames
Format settings, GOP             : M=1, N=49
Codec ID                         : avc1
Codec ID/Info                    : Advanced Video Coding
Duration                         : 28mn 56s
Bit rate mode                    : Variable
Bit rate                         : 2 501 Kbps
Maximum bit rate                 : 3 500 Kbps
Width                            : 1 280 pixels
Height                           : 720 pixels
Display aspect ratio             : 16:9
Frame rate mode                  : Constant
Frame rate                       : 25.000 fps
Standard                         : PAL
Color space                      : YUV
Chroma subsampling               : 4:2:0
Bit depth                        : 8 bits
Scan type                        : Progressive
Bits/(Pixel*Frame)               : 0.109
Stream size                      : 518 MiB (96%)

Audio
ID                               : 2
Format                           : AAC
Format/Info                      : Advanced Audio Codec
Format profile                   : HE-AAC / LC
Codec ID                         : 40
Duration                         : 28mn 56s
Bit rate mode                    : Constant
Bit rate                         : 96.0 Kbps
Channel(s)                       : 2 channels
Channel positions                : Front: L R
Sampling rate                    : 48.0 KHz / 24.0 KHz
Compression mode                 : Lossy
Stream size                      : 19.6 MiB (4%)


                  ______                                     
                 (____  \                                    
                  ____)  )_____  ____ _____ _   _  ___ _____ 
                 |  __  (| ___ |/ ___|____ | | | |/___) ___ |
            _ _ _| |__)  ) ____( (___/ ___ | |_| |___ | ____|
           (_|_|_)______/|_____)\____)_____|____/(___/|_____)
                                                              
                   ______ _                 _             
                  / _____) |               (_)            
                 ( (____ | |__  _____  ____ _ ____   ____ 
                  \____ \|  _ \(____ |/ ___) |  _ \ / _  |
                  _____) ) | | / ___ | |   | | | | ( (_| |
                 (______/|_| |_\_____|_|   |_|_| |_|\___ |
                                                   (_____|
                                  _      
                                 (_)     
                                  _  ___ 
                                 | |/___)
                                 | |___ |
                                 |_(___/ 

                    _______             _               
                   (_______)           (_)              
                    _       _____  ____ _ ____   ____   
                   | |     (____ |/ ___) |  _ \ / _  |  
                   | |_____/ ___ | |   | | | | ( (_| |_ 
                    \______)_____|_|   |_|_| |_|\___ (_)
                                               (_____|  

                                    ;)

